<svg width="48" height="49" viewBox="0 0 48 49" fill="none" xmlns="http://www.w3.org/2000/svg">
<path id="Arrow 2" d="M43.1345 46.2539C43.1345 47.3585 44.03 48.2539 45.1345 48.2539C46.2391 48.2539 47.1345 47.3585 47.1345 46.2539L43.1345 46.2539ZM45.1344 20.6512L43.1344 20.6512L43.1344 20.6512L45.1344 20.6512ZM40.1348 15.6512L40.1346 17.6512L40.1348 15.6512ZM0.585577 14.2341C-0.19553 15.0151 -0.19562 16.2814 0.585373 17.0625L13.3124 29.7914C14.0934 30.5725 15.3597 30.5726 16.1408 29.7916C16.9219 29.0106 16.922 27.7443 16.141 26.9632L4.82811 15.6486L16.1426 4.33573C16.9237 3.55474 16.9238 2.28841 16.1428 1.50731C15.3619 0.726199 14.0955 0.726109 13.3144 1.5071L0.585577 14.2341ZM47.1345 46.2539L47.1344 20.6511L43.1344 20.6512L43.1345 46.2539L47.1345 46.2539ZM40.1349 13.6512L1.99983 13.6484L1.99954 17.6484L40.1346 17.6512L40.1349 13.6512ZM47.1344 20.6512C47.1344 16.7854 44.0007 13.6515 40.1349 13.6512L40.1346 17.6512C41.7914 17.6513 43.1344 18.9944 43.1344 20.6512L47.1344 20.6512Z" fill="black"/>
</svg>
